<svg width="271" height="258" viewBox="0 0 271 258" fill="none" xmlns="http://www.w3.org/2000/svg">
<g clip-path="url(#clip0_2010_671)">
<path d="M166 1C166 1.66 166 2.32 166 3C166.592 3.26933 167.184 3.53867 167.795 3.81616C169.997 4.99853 171.494 6.21206 173.285 7.94141C173.892 8.52036 174.5 9.09931 175.125 9.6958C176.084 10.6198 176.084 10.6198 177.062 11.5625C182.292 16.5296 187.618 21.2248 193.258 25.7266C196.45 28.3734 199.474 31.1657 202.5 34C207.283 38.4792 212.208 42.6845 217.32 46.7891C220.133 49.1093 222.818 51.5307 225.5 54C229.97 58.1138 234.59 61.9709 239.316 65.7852C241.947 67.9563 244.479 70.2024 247 72.5C250.46 75.6527 253.992 78.6726 257.625 81.625C258.531 82.3675 259.437 83.11 260.371 83.875C262.052 85.2334 263.751 86.5693 265.473 87.875C266.204 88.4525 266.934 89.03 267.688 89.625C268.331 90.1123 268.974 90.5995 269.637 91.1016C271.799 94.1131 271.398 96.3817 271 100C270.019 102.52 269.025 104.706 267.75 107.062C267.393 107.75 267.036 108.437 266.668 109.145C263.232 115.703 259.634 122.177 256.062 128.662C251.349 137.26 246.851 145.964 242.375 154.688C242.007 155.405 241.638 156.123 241.259 156.863C240.525 158.294 239.791 159.725 239.056 161.156C238.701 161.849 238.346 162.541 237.98 163.254C237.631 163.936 237.281 164.617 236.921 165.32C233.837 171.328 230.706 177.31 227.548 183.279C225.307 187.514 223.082 191.757 220.871 196.008C220.332 197.044 219.793 198.08 219.238 199.148C218.193 201.157 217.15 203.166 216.108 205.176C215.632 206.093 215.155 207.009 214.664 207.953C214.246 208.759 213.828 209.565 213.397 210.396C212.936 211.255 212.475 212.114 212 213C211.17 214.717 211.17 214.717 210.323 216.469C208.072 220.373 205.691 221.537 201.428 223.099C200.775 223.345 200.122 223.592 199.45 223.846C197.291 224.655 195.121 225.429 192.949 226.203C191.414 226.77 189.88 227.339 188.346 227.91C184.291 229.414 180.225 230.887 176.156 232.356C172.138 233.811 168.131 235.296 164.123 236.777C156.292 239.666 148.445 242.513 140.592 245.343C136.771 246.72 132.954 248.108 129.137 249.499C126.258 250.546 123.376 251.586 120.494 252.624C119.151 253.109 117.809 253.596 116.468 254.086C114.63 254.758 112.787 255.418 110.945 256.077C109.396 256.637 109.396 256.637 107.815 257.208C105.017 257.995 102.887 258.287 100 258C97.7891 256.312 97.7891 256.312 95.625 254C94.8374 253.169 94.0498 252.337 93.2383 251.48C90.8292 248.811 88.4823 246.095 86.1445 243.363C83.2083 240.128 80.1051 237.073 77 234C69.6431 226.719 69.6431 226.719 66.5625 223.062C63.1096 218.974 59.2992 215.263 55.5 211.5C51.1564 207.198 46.9395 202.897 43 198.219C39.3287 194.146 35.3682 190.35 31.4731 186.493C27.7713 182.813 24.2351 179.083 20.8711 175.09C18.18 172.084 15.3038 169.275 12.4375 166.438C10.774 164.776 9.11223 163.112 7.45166 161.448C6.24149 160.241 5.01875 159.047 3.79297 157.855C2.125 156.125 2.125 156.125 0 153C0.268823 147.684 1.921 143.411 4.25391 138.707C4.58626 138.016 4.91861 137.325 5.26103 136.613C5.97868 135.122 6.70036 133.633 7.42566 132.146C9.38544 128.123 11.3113 124.085 13.2383 120.047C13.636 119.215 14.0337 118.383 14.4435 117.525C18.5327 108.939 22.4122 100.264 26.25 91.5625C26.579 90.8173 26.9081 90.0722 27.2471 89.3044C28.5553 86.3414 29.8628 83.3781 31.1684 80.4139C33.2996 75.5774 35.4471 70.7485 37.6094 65.9258C37.896 65.2863 38.1826 64.6469 38.4779 63.9881C39.8527 60.9237 41.2323 57.8616 42.6167 54.8015C44.9352 49.6674 47.2165 44.5324 49.3359 39.3125C49.8619 38.0433 49.8619 38.0433 50.3984 36.7485C51.0208 35.2358 51.6245 33.7151 52.2031 32.1851C53.5795 28.8729 54.5812 27.2232 57.7783 25.5188C63.5108 23.266 69.5543 21.9538 75.5234 20.4883C76.8599 20.1557 78.1963 19.8225 79.5325 19.4889C83.0814 18.6046 86.632 17.7276 90.1832 16.8528C93.8383 15.9518 97.4922 15.0459 101.146 14.1409C105.473 13.0698 109.8 11.9998 114.127 10.9335C121.03 9.23258 127.929 7.52119 134.819 5.76942C137.896 4.98757 140.974 4.21463 144.053 3.44394C146.004 2.95235 147.951 2.44865 149.898 1.94458C155.663 0.516215 160.189 -0.476067 166 1Z" fill="#030303"/>
<path d="M93 66C98.0456 70.2678 102.937 74.66 107.75 79.1875C108.442 79.8366 109.133 80.4857 109.846 81.1545C115.682 86.655 121.383 92.2758 127 98C121.337 110.847 115.387 123.497 109 136C106.18 134.711 104.087 133.35 101.868 131.19C101.284 130.626 100.701 130.062 100.1 129.48C99.1744 128.568 99.1744 128.568 98.2305 127.637C97.5901 127.008 96.9497 126.379 96.2899 125.731C94.9415 124.401 93.596 123.069 92.2532 121.734C90.1912 119.691 88.1089 117.671 86.0254 115.65C84.7174 114.355 83.4108 113.059 82.1055 111.762C81.4785 111.159 80.8516 110.557 80.2056 109.937C76.0264 105.713 76.0264 105.713 75.9094 102.557C76.2693 101.713 76.6292 100.869 77 100C77.4866 98.8183 77.9732 97.6365 78.4746 96.4189C79.0921 95.0528 79.7155 93.6893 80.3438 92.3281C80.6729 91.6051 81.0021 90.8821 81.3412 90.1371C82.0347 88.6165 82.7308 87.097 83.4292 85.5786C84.5016 83.2464 85.5659 80.9107 86.6289 78.5742C87.3042 77.0961 87.98 75.6183 88.6562 74.1406C88.9761 73.4396 89.2959 72.7386 89.6254 72.0164C91.8835 67.1165 91.8835 67.1165 93 66Z" fill="#0281BC"/>
<path d="M128 101C131.03 102.352 133.085 103.855 135.391 106.23C136.014 106.865 136.637 107.501 137.28 108.155C137.93 108.826 138.58 109.496 139.25 110.188C145.275 116.317 151.472 122.048 158.062 127.562C160 130 160 130 159.86 132.651C158.802 136.771 157.123 140.254 155.184 144.023C154.808 144.77 154.432 145.516 154.044 146.285C152.85 148.652 151.644 151.013 150.438 153.375C149.622 154.985 148.808 156.596 147.994 158.207C146.005 162.142 144.005 166.072 142 170C141.34 170 140.68 170 140 170C138.654 168.635 138.654 168.635 137.051 166.684C132.38 161.192 127.294 156.147 122.188 151.062C121.224 150.096 120.262 149.129 119.299 148.162C118.389 147.254 117.48 146.346 116.543 145.41C115.718 144.587 114.893 143.763 114.044 142.914C112.145 140.954 112.145 140.954 110 140C110.619 135.937 111.944 132.762 113.801 129.105C114.366 127.985 114.931 126.864 115.514 125.709C116.107 124.547 116.701 123.385 117.312 122.188C118.186 120.462 118.186 120.462 119.076 118.701C120.204 116.472 121.334 114.244 122.467 112.017C124.329 108.353 126.168 104.678 128 101Z" fill="#0282BC"/>
<path d="M108 142C110.772 143.271 112.856 144.595 115.04 146.718C115.604 147.262 116.167 147.807 116.748 148.367C117.343 148.954 117.938 149.54 118.551 150.145C119.169 150.751 119.787 151.358 120.424 151.983C121.725 153.266 123.024 154.551 124.32 155.839C126.309 157.809 128.319 159.757 130.33 161.705C131.592 162.954 132.854 164.205 134.113 165.457C134.718 166.037 135.323 166.618 135.947 167.216C139.978 171.291 139.978 171.291 140.077 174.475C138.705 177.691 137.256 180.838 135.656 183.945C135.327 184.597 134.998 185.249 134.659 185.92C133.612 187.991 132.556 190.058 131.5 192.125C130.445 194.199 129.392 196.275 128.341 198.351C127.688 199.64 127.033 200.928 126.375 202.214C125.065 204.791 123.916 207.253 123 210C120.142 208.703 118.09 207.336 115.884 205.111C115.303 204.53 114.723 203.95 114.125 203.352C113.512 202.728 112.898 202.104 112.266 201.461C111.628 200.82 110.99 200.179 110.332 199.519C108.3 197.476 106.275 195.425 104.25 193.375C102.872 191.987 101.493 190.598 100.113 189.211C96.7369 185.813 93.3668 182.408 90 179C93.9164 169.91 97.8939 160.892 102.375 152.062C102.812 151.189 103.249 150.316 103.699 149.416C106.858 143.142 106.858 143.142 108 142Z" fill="#0381BB"/>
<path d="M74 107C78.6687 110.9 83.0913 114.952 87.3711 119.273C87.9383 119.842 88.5055 120.411 89.0899 120.996C90.8748 122.787 92.6562 124.581 94.4375 126.375C95.658 127.6 96.8787 128.826 98.0996 130.051C101.069 133.031 104.035 136.015 107 139C101.174 151.424 95.1893 163.753 89 176C86.1903 174.72 84.1461 173.393 81.9756 171.203C81.4153 170.642 80.855 170.082 80.2778 169.504C79.686 168.902 79.0941 168.3 78.4844 167.68C77.8685 167.061 77.2527 166.442 76.6182 165.805C74.6574 163.833 72.7036 161.854 70.75 159.875C69.4197 158.535 68.089 157.195 66.7578 155.855C63.4999 152.576 60.2483 149.289 57 146C58.4914 141.213 60.3862 136.74 62.4766 132.195C62.9717 131.109 62.9717 131.109 63.4769 130.001C64.5234 127.708 65.5741 125.416 66.625 123.125C67.3388 121.563 68.0524 120 68.7656 118.438C70.5072 114.624 72.2526 110.811 74 107Z" fill="#E13E31"/>
<path d="M88 182C91.2092 182.58 92.8344 183.464 95.1162 185.776C95.6965 186.356 96.2768 186.937 96.8747 187.535C97.4884 188.164 98.1021 188.793 98.7344 189.441C99.3724 190.084 100.01 190.726 100.668 191.388C102.702 193.439 104.726 195.501 106.75 197.562C108.128 198.956 109.507 200.348 110.887 201.74C114.266 205.152 117.635 208.574 121 212C119.777 215.875 118.385 219.463 116.539 223.082C116.067 224.015 115.595 224.947 115.109 225.908C114.62 226.867 114.13 227.825 113.625 228.812C110.235 235.471 106.951 242.134 104 249C97.3399 245.803 92.9551 239.999 88.2461 234.441C86.361 232.392 84.4368 230.495 82.4102 228.59C81.7689 227.979 81.1277 227.368 80.467 226.739C79.1706 225.51 77.86 224.297 76.5349 223.099C75.6359 222.242 75.6359 222.242 74.7188 221.367C74.1715 220.863 73.6243 220.359 73.0605 219.839C72 218 72 218 72.1189 215.236C73.1286 211.528 74.624 208.249 76.3789 204.852C76.7104 204.194 77.042 203.537 77.3835 202.859C78.4357 200.777 79.4989 198.701 80.5625 196.625C81.2813 195.207 81.9994 193.789 82.7168 192.371C84.4694 188.91 86.232 185.454 88 182Z" fill="#DE3E31"/>
<path d="M61 35C65.1392 36.6458 67.9954 39.6372 71.1133 42.707C71.6871 43.2694 72.2609 43.8318 72.8521 44.4113C74.0592 45.5996 75.2635 46.7908 76.4651 47.9846C78.3098 49.8099 80.1748 51.6127 82.041 53.416C83.2122 54.5742 84.3822 55.7337 85.5508 56.8945C86.1121 57.4312 86.6734 57.9678 87.2518 58.5207C90.9849 62.2979 90.9849 62.2979 91.0518 65.3999C89.6468 68.8731 88.1978 72.3089 86.6211 75.707C86.1238 76.7951 86.1238 76.7951 85.6165 77.9052C84.5618 80.2099 83.4998 82.5112 82.4375 84.8125C81.7189 86.3793 81.0008 87.9464 80.2832 89.5137C78.5277 93.345 76.7656 97.1733 75 101C71 101 71 101 68.0674 98.5215C66.9357 97.3891 65.8149 96.2458 64.7031 95.0938C64.1095 94.4945 63.5159 93.8952 62.9042 93.2777C61.0099 91.361 59.1299 89.4308 57.25 87.5C55.9684 86.1983 54.6858 84.8975 53.4023 83.5977C50.2576 80.4088 47.1256 77.2077 44 74C46.3199 66.3895 49.4481 59.219 52.7256 51.9858C53.6347 49.9785 54.5366 47.968 55.4375 45.957C59.8542 36.1458 59.8542 36.1458 61 35Z" fill="#6AB84C"/>
<path d="M43 76C48.9107 80.9145 54.4935 86.1444 59.9824 91.5225C61.0015 92.5147 62.0277 93.4996 63.0605 94.4775C64.5679 95.906 66.0511 97.3559 67.5312 98.8125C68.4136 99.6646 69.296 100.517 70.2051 101.395C72 104 72 104 71.8794 107.088C71.1696 109.439 70.4711 111.577 69.3984 113.777C69.0762 114.449 68.7539 115.121 68.4219 115.813C68.0764 116.514 67.7309 117.215 67.375 117.938C66.6533 119.435 65.932 120.932 65.2109 122.43C64.8445 123.185 64.4781 123.94 64.1006 124.718C62.3652 128.316 60.6828 131.939 59 135.562C58.4168 136.814 57.8335 138.065 57.25 139.316C56.8375 140.202 56.425 141.088 56 142C53 142 53 142 50.1809 139.521C49.0465 138.387 47.9203 137.243 46.8008 136.094C46.2057 135.494 45.6107 134.895 44.9976 134.278C43.0954 132.359 41.2039 130.43 39.3125 128.5C38.0261 127.199 36.739 125.898 35.4512 124.598C32.2928 121.406 29.144 118.206 26 115C28.5545 106.425 32.365 98.4987 36.1875 90.4375C36.8488 89.0334 37.5096 87.6291 38.1699 86.2246C39.7747 82.8139 41.3856 79.4062 43 76Z" fill="#E6E53E"/>
<path d="M55 149C57.8043 150.275 59.816 151.58 61.9531 153.793C62.486 154.337 63.0189 154.882 63.5679 155.443C64.4005 156.306 64.4005 156.306 65.25 157.188C69.434 161.456 73.6515 165.563 78.2109 169.434C81.2945 172.133 84.136 175.072 87 178C84.6333 185.989 81.0961 193.155 77.3125 200.562C76.6993 201.774 76.0867 202.985 75.4746 204.197C73.9885 207.134 72.4969 210.068 71 213C68 213 68 213 66.1182 211.475C65.4243 210.771 64.7305 210.068 64.0156 209.344C63.2448 208.568 62.4739 207.792 61.6797 206.992C60.8779 206.17 60.0761 205.347 59.25 204.5C58.4637 203.709 57.6773 202.917 56.8672 202.102C52.5871 197.765 48.4574 193.342 44.499 188.709C43.0476 186.955 43.0476 186.955 41.2432 185.588C40 184 40 184 40.115 181.753C41.2078 178.354 42.6244 175.165 44.1602 171.949C44.4695 171.29 44.7788 170.632 45.0975 169.953C46.0807 167.862 47.0715 165.775 48.0625 163.688C48.7329 162.265 49.4029 160.843 50.0723 159.42C51.7091 155.944 53.3527 152.471 55 149Z" fill="#DF3E31"/>
<path d="M23 117C27.2907 118.652 30.143 121.891 33.2969 125.102C33.8905 125.698 34.4841 126.294 35.0958 126.909C36.9853 128.81 38.8677 130.717 40.75 132.625C42.0321 133.917 43.3146 135.209 44.5977 136.5C47.7371 139.661 50.8702 142.829 54 146C49.156 157.408 44.301 168.795 39 180C34.6524 179.576 32.6184 176.742 29.9375 173.625C28.9684 172.531 27.997 171.438 27.0234 170.348C26.5268 169.791 26.0302 169.234 25.5186 168.661C22.2882 165.128 18.8341 161.816 15.4102 158.473C10.6226 153.561 10.6226 153.561 9 151C9.36996 146.281 10.9325 142.541 12.9414 138.289C13.3721 137.37 13.3721 137.37 13.8115 136.431C14.7216 134.493 15.6418 132.559 16.5625 130.625C17.1849 129.304 17.8067 127.982 18.4277 126.66C19.9441 123.436 21.4695 120.217 23 117Z" fill="#E6E43E"/>
<path d="M129.984 58.1797C130.858 59.0189 130.858 59.0189 131.75 59.875C132.425 60.5118 133.101 61.1486 133.797 61.8047C137.057 65.0536 140.315 68.3051 143.547 71.582C145.715 73.7192 147.931 75.7178 150.25 77.6875C153.928 80.8268 156.944 84.2565 160 88C153.642 90.5144 147.225 92.4172 140.625 94.1875C139.13 94.5965 139.13 94.5965 137.605 95.0137C130.268 97 130.268 97 128 97C126.274 95.3706 124.636 93.7162 123 92C121.987 90.982 120.972 89.9667 119.954 88.9539C111.969 80.9692 103.985 72.9846 96 65C100.409 62.0605 105.216 61.1891 110.312 59.875C111.346 59.5979 112.379 59.3207 113.443 59.0352C114.448 58.7735 115.453 58.5118 116.488 58.2422C117.401 58.0035 118.314 57.7649 119.255 57.519C123.029 56.8054 126.592 56.1627 129.984 58.1797Z" fill="#0481BA"/>
<path d="M163 48C165.176 49.7227 165.176 49.7227 167.312 52.0625C170.06 54.9678 172.775 57.7739 175.812 60.375C179.93 63.9035 183.909 67.5734 187.876 71.269C190.175 73.3957 192.386 75.2576 195 77C195 77.66 195 78.32 195 79C191.108 80.1722 187.212 81.3293 183.312 82.4729C181.987 82.8637 180.663 83.2585 179.34 83.6575C177.434 84.2316 175.524 84.7898 173.613 85.3477C172.466 85.688 171.32 86.0284 170.138 86.3792C166.951 87.0096 165.076 86.9531 162 86C160.113 84.7227 160.113 84.7227 158.312 83.0625C157.628 82.4347 156.944 81.807 156.238 81.1602C152.927 77.9649 149.691 74.699 146.457 71.4258C143.66 68.6642 140.74 66.093 137.762 63.5312C135.37 61.4521 133.14 59.3402 131 57C131 56.34 131 55.68 131 55C135.393 53.8233 139.79 52.6604 144.188 51.5C145.433 51.1661 146.679 50.8323 147.963 50.4883C149.165 50.1725 150.367 49.8566 151.605 49.5312C152.71 49.238 153.815 48.9447 154.954 48.6426C157.783 48.0458 160.126 47.7386 163 48Z" fill="#6BB84C"/>
<path d="M198 40C200.177 41.7785 202.135 43.5341 204.125 45.5C205.275 46.6002 206.427 47.6978 207.582 48.793C208.442 49.6097 208.442 49.6097 209.319 50.4429C212.565 53.4494 216.03 56.1834 219.477 58.9531C223.072 61.8698 226.544 64.9202 230 68C226.327 71.6733 220.662 72.2689 215.75 73.625C214.05 74.1123 214.05 74.1123 212.316 74.6094C211.217 74.9162 210.117 75.223 208.984 75.5391C207.48 75.9599 207.48 75.9599 205.944 76.3892C198.564 77.9203 198.564 77.9203 195.161 75.9177C194.656 75.4176 194.152 74.9176 193.633 74.4023C192.776 73.5762 192.776 73.5762 191.901 72.7334C191.315 72.1408 190.729 71.5481 190.125 70.9375C188.884 69.7323 187.641 68.5279 186.398 67.3242C185.809 66.7446 185.22 66.165 184.612 65.5679C182.716 63.7242 180.756 61.9733 178.75 60.25C178.157 59.7357 177.564 59.2213 176.953 58.6914C176.309 58.1332 175.664 57.5751 175 57C173.161 55.4026 171.328 53.7982 169.5 52.1875C168.644 51.4386 167.788 50.6896 166.906 49.918C165 48 165 48 165 46C168.893 44.9711 172.789 43.9563 176.688 42.9543C178.013 42.6118 179.337 42.2655 180.66 41.9153C182.566 41.4113 184.476 40.9223 186.387 40.4336C188.107 39.9858 188.107 39.9858 189.862 39.5291C193.04 38.9933 194.955 39.0078 198 40Z" fill="#E4E23E"/>
<path d="M165.875 92C167.293 93.2871 168.661 94.6305 170 96C171.033 97.0207 172.067 98.0402 173.102 99.0586C175.375 101.31 177.624 103.582 179.863 105.867C182.918 108.96 186.129 111.804 189.512 114.535C191.209 116.205 191.984 117.863 193 120C177.18 125.273 177.18 125.273 174.444 126.179C172.497 126.833 170.563 127.524 168.633 128.227C165.67 129.097 164.068 129.48 161 129C158.546 127.24 156.535 125.092 154.457 122.91C153.847 122.291 153.238 121.672 152.61 121.034C150.665 119.055 148.738 117.06 146.812 115.062C144.872 113.073 142.929 111.086 140.983 109.102C139.774 107.866 138.569 106.626 137.367 105.382C134.483 102.304 134.483 102.304 131 100C131 99.34 131 98.68 131 98C131.548 97.8642 132.097 97.7285 132.661 97.5886C134.292 97.1842 135.923 96.7787 137.554 96.3723C139.398 95.9144 141.244 95.4612 143.091 95.0125C147.918 93.8279 152.562 92.475 157.25 90.8125C160.939 89.8359 162.699 89.8237 165.875 92Z" fill="#0381BA"/>
<path d="M96 26C97.6287 27.5151 99.208 29.0842 100.75 30.6875C103.727 33.7292 106.694 36.6822 109.938 39.4375C115.256 43.9807 120.098 49.0172 125 54C120.15 56.6239 114.933 57.7453 109.625 59.125C108.596 59.4021 107.568 59.6793 106.508 59.9648C105.007 60.3574 105.007 60.3574 103.477 60.7578C102.57 60.9964 101.663 61.2351 100.729 61.481C97.5236 62.0906 95.2538 62.4991 92 62C89.3748 60.1909 87.2618 57.9602 85.0703 55.6562C84.4351 55.0126 83.7999 54.3689 83.1455 53.7057C81.1241 51.6508 79.1246 49.576 77.125 47.5C75.7566 46.1015 74.3868 44.7043 73.0156 43.3086C69.6609 39.8878 66.3257 36.449 63 33C66.8717 29.1283 73.1896 28.5997 78.375 27.25C79.6202 26.9084 80.8655 26.5668 82.1484 26.2148C83.9428 25.745 83.9428 25.745 85.7734 25.2656C86.8709 24.9746 87.9684 24.6836 89.0991 24.3838C92.2955 23.9609 93.3901 24.196 96 26Z" fill="#6BB84C"/>
<path d="M199 81C201.679 82.944 203.972 85.2293 206.312 87.5625C207.65 88.855 208.989 90.1466 210.328 91.4375C211.282 92.3676 211.282 92.3676 212.256 93.3164C217.26 98.147 222.637 102.576 228 107C226.155 110.691 221.285 111.161 217.559 112.424C216.933 112.631 216.308 112.838 215.664 113.051C213.767 113.682 211.878 114.334 209.988 114.986C208.791 115.387 207.593 115.787 206.359 116.199C205.261 116.569 204.162 116.938 203.03 117.319C199.868 118.03 198.068 117.954 195 117C193.148 115.758 193.148 115.758 191.375 114.125C190.692 113.499 190.009 112.872 189.305 112.227C185.713 108.757 182.201 105.209 178.691 101.656C175.762 98.7647 172.722 96.0684 169.559 93.4375C168 92 168 92 166 89C172.966 86.7916 179.952 84.6799 187 82.75C188.217 82.4148 189.434 82.0797 190.688 81.7344C196.409 80.4658 196.409 80.4658 199 81Z" fill="#0480BA"/>
<path d="M164.77 10.2559C165.302 10.7799 165.834 11.3039 166.383 11.8438C167.29 12.7179 167.29 12.7179 168.216 13.6096C169.161 14.5454 169.161 14.5454 170.125 15.5C175.468 20.6556 180.86 25.4815 186.73 30.0352C189.173 32.1495 191.059 34.4252 193 37C186.803 39.1325 180.577 41.0446 174.25 42.75C173.426 42.9833 172.603 43.2166 171.754 43.457C163.957 45.5538 163.957 45.5538 160 44C158.262 42.6172 158.262 42.6172 156.688 40.875C154.318 38.363 151.933 36.0005 149.312 33.75C145.158 30.1743 141.135 26.4667 137.124 22.7314C134.825 20.6046 132.614 18.7426 130 17C130 16.34 130 15.68 130 15C133.893 13.9711 137.789 12.9563 141.688 11.9543C143.013 11.6118 144.337 11.2655 145.66 10.9153C147.566 10.4113 149.476 9.92227 151.387 9.43359C153.107 8.98584 153.107 8.98585 154.862 8.52905C158.795 7.86591 161.467 7.91209 164.77 10.2559Z" fill="#6BB74C"/>
<path d="M128 17C130.176 18.8252 132.213 20.6564 134.25 22.625C135.417 23.7286 136.585 24.8315 137.754 25.9336C138.315 26.4658 138.876 26.998 139.454 27.5464C141.326 29.3065 143.244 31.0064 145.188 32.6875C149.853 36.7235 154.423 40.8641 159 45C150.587 50.6087 138.027 53.6283 128 54C122.506 52.3783 119.338 48.1909 116.168 43.6387C114.573 41.401 112.677 39.5753 110.688 37.6875C110.079 37.0675 109.471 36.4474 108.844 35.8086C106.266 33.2802 103.531 30.9552 100.762 28.6406C98.8992 26.9061 97.5009 25.049 96 23C99.9113 21.9727 103.826 20.9578 107.743 19.9543C109.075 19.6114 110.406 19.2651 111.735 18.9153C113.649 18.4125 115.567 17.9229 117.484 17.4336C118.636 17.1351 119.789 16.8366 120.976 16.5291C123.877 16.0215 125.322 15.8784 128 17Z" fill="#6BB84C"/>
<path d="M237 74C238.742 75.5033 240.449 77.0487 242.125 78.625C248.425 84.4471 254.851 90.2338 262 95C262 95.66 262 96.32 262 97C257.948 98.4561 253.891 99.8982 249.83 101.327C248.449 101.815 247.07 102.307 245.692 102.803C243.709 103.515 241.723 104.214 239.734 104.91C238.54 105.334 237.346 105.759 236.116 106.196C233.113 106.971 231.804 107.195 229 106C227.359 104.617 227.359 104.617 225.75 102.875C223.356 100.374 220.937 98.0087 218.312 95.75C214.674 92.5996 211.073 89.412 207.5 86.1875C206.959 85.707 206.418 85.2265 205.861 84.7314C204.535 83.529 203.262 82.2687 202 81C202 80.34 202 79.68 202 79C206.062 77.8511 210.124 76.7064 214.188 75.5625C215.338 75.237 216.488 74.9115 217.674 74.5762C218.786 74.2636 219.897 73.951 221.043 73.6289C222.064 73.3409 223.085 73.0529 224.137 72.7561C232.37 70.5816 232.37 70.5816 237 74Z" fill="#E4E23E"/>
<path d="M155 201C156 203 156 203 155.045 206.265C144.302 235.856 144.302 235.856 133.133 241.842C125.281 245.431 116.572 247.958 108 249C107.34 248.67 106.68 248.34 106 248C108.012 243.106 110.104 238.257 112.274 233.431C112.998 231.791 113.701 230.141 114.379 228.482C117.872 219.977 120.882 213.154 129.702 209.416C132.708 208.343 135.725 207.421 138.811 206.605C142.328 205.633 145.705 204.335 149.125 203.062C151.082 202.372 153.04 201.684 155 201Z" fill="#DB3F32"/>
<path d="M193 122C190.867 129.466 187.59 136.104 184.039 142.973C182.745 145.482 181.584 147.961 180.461 150.559C179.999 151.612 179.538 152.665 179.062 153.75C178.492 155.134 178.492 155.134 177.91 156.547C175.006 160.277 171.355 161.392 167 163C166.151 163.319 165.301 163.637 164.427 163.966C161.814 164.923 159.192 165.842 156.562 166.75C155.666 167.066 154.769 167.382 153.846 167.707C147.26 170 147.26 170 145 170C146.432 165.406 148.244 161.08 150.301 156.738C150.778 155.73 150.778 155.73 151.265 154.7C151.936 153.288 152.61 151.878 153.285 150.468C153.971 149.029 154.651 147.586 155.324 146.141C156.302 144.042 157.299 141.952 158.301 139.863C158.597 139.22 158.893 138.576 159.198 137.912C161.749 132.687 164.47 130.993 169.739 128.925C170.706 128.606 171.672 128.286 172.668 127.957C173.726 127.606 174.783 127.254 175.873 126.893C176.967 126.536 178.061 126.18 179.188 125.812C180.846 125.26 180.846 125.26 182.537 124.697C190.719 122 190.719 122 193 122Z" fill="#0580B8"/>
<path d="M228 112C225.85 116.918 223.648 121.807 221.396 126.679C220.639 128.336 219.896 129.999 219.168 131.669C212.329 147.317 212.329 147.317 204.824 150.477C202.898 151.04 200.957 151.555 199 152C197.208 152.64 197.208 152.64 195.379 153.293C193.985 153.736 193.985 153.736 192.562 154.188C189.747 155.088 187.044 155.98 184.34 157.176C182 158 182 158 179 157C181.24 151.912 183.515 146.841 185.824 141.784C186.603 140.063 187.373 138.337 188.133 136.607C189.23 134.115 190.361 131.641 191.5 129.168C191.831 128.396 192.161 127.624 192.502 126.829C194.374 122.858 195.762 120.698 199.952 119.106C201.295 118.716 202.644 118.345 204 118C204.92 117.67 205.84 117.341 206.788 117.001C209.46 116.075 212.135 115.16 214.812 114.25C215.753 113.921 216.693 113.593 217.662 113.254C218.564 112.948 219.466 112.643 220.395 112.328C221.208 112.049 222.021 111.769 222.859 111.481C225 111 225 111 228 112Z" fill="#0580B9"/>
<path d="M174 164C172.226 167.861 170.448 171.721 168.666 175.578C168.061 176.888 167.458 178.198 166.856 179.509C165.425 182.624 163.98 185.729 162.494 188.819C161.028 191.814 161.028 191.814 160.18 194.273C158.874 197.506 157.169 198.914 154.12 200.459C150.434 201.933 146.711 203.213 142.938 204.438C141.631 204.885 140.326 205.335 139.021 205.787C129.56 209 129.56 209 126 209C128.041 202.606 130.678 196.524 133.473 190.432C134.072 189.107 134.656 187.776 135.223 186.438C138.161 179.53 140.59 173.891 147.91 170.809C149.928 170.168 151.958 169.562 154 169C155.601 168.403 157.196 167.792 158.785 167.164C160.21 166.648 161.635 166.135 163.062 165.625C163.794 165.353 164.526 165.081 165.279 164.801C170.646 162.882 170.646 162.882 174 164Z" fill="#0580B8"/>
<path d="M208 151C206.695 155.145 205.143 159.004 203.25 162.914C202.724 164.005 202.198 165.095 201.656 166.219C201.11 167.343 200.563 168.467 200 169.625C199.18 171.323 199.18 171.323 198.344 173.055C196.901 176.039 195.455 179.022 194 182C193.629 183.078 193.629 183.078 193.25 184.178C191.292 187.031 188.392 187.724 185.242 188.797C184.579 189.035 183.916 189.274 183.233 189.52C181.118 190.277 178.997 191.014 176.875 191.75C175.438 192.26 174.002 192.772 172.566 193.285C169.05 194.539 165.527 195.774 162 197C161.67 196.34 161.34 195.68 161 195C162.032 192.406 162.032 192.406 163.641 189.145C164.217 187.964 164.793 186.784 165.387 185.568C166.007 184.316 166.629 183.064 167.25 181.812C168.155 179.973 169.058 178.132 169.959 176.291C170.786 174.606 171.618 172.924 172.45 171.241C174.088 167.973 174.088 167.973 175.288 164.272C177.486 160.071 179.114 159.564 183.566 158.129C184.201 157.917 184.836 157.705 185.49 157.486C187.507 156.819 189.533 156.191 191.562 155.562C192.93 155.115 194.296 154.665 195.662 154.213C205.481 151 205.481 151 208 151Z" fill="#6AB64D"/>
<path d="M190 190C187.74 194.663 185.479 199.326 183.219 203.989C182.45 205.576 181.681 207.163 180.911 208.75C179.807 211.029 178.702 213.307 177.598 215.586C177.253 216.297 176.908 217.009 176.553 217.742C173.662 223.704 172.548 225.406 166.34 227.602C165.675 227.843 165.011 228.084 164.326 228.333C162.199 229.104 160.068 229.864 157.938 230.625C156.497 231.145 155.056 231.666 153.615 232.188C150.08 233.466 146.541 234.735 143 236C143.633 231.86 145.013 228.541 146.836 224.781C147.406 223.602 147.975 222.422 148.562 221.207C148.86 220.598 149.158 219.989 149.465 219.362C150.371 217.509 151.268 215.651 152.164 213.793C155.376 207.175 155.376 207.175 157 204C157.428 203.103 157.856 202.205 158.297 201.281C160.599 198.198 162.736 197.548 166.348 196.289C167.592 195.849 168.837 195.41 170.119 194.957C170.766 194.739 171.413 194.52 172.079 194.295C174.066 193.624 176.042 192.926 178.018 192.223C187.711 188.856 187.711 188.856 190 190Z" fill="#6BB74D"/>
<path d="M261 99C262 102 262 102 261.015 104.277C260.504 105.155 259.992 106.033 259.465 106.938C258.902 107.916 258.339 108.894 257.76 109.902C257.158 110.925 256.557 111.947 255.938 113C254.779 115 253.622 117 252.465 119C251.886 119.988 251.307 120.976 250.711 121.993C248.514 125.854 246.512 129.808 244.545 133.79C241.547 138.079 236.818 138.68 232 140C229.126 141.032 226.283 142.143 223.438 143.25C216.306 146 216.306 146 214 146C216.081 139.356 219.034 133.196 222.065 126.95C222.729 125.569 223.382 124.182 224.022 122.79C230.041 109.727 230.041 109.727 235.305 107.305C236.857 106.826 238.424 106.393 240 106C241.827 105.367 243.651 104.726 245.473 104.078C247.334 103.464 249.198 102.855 251.062 102.25C252.023 101.934 252.984 101.618 253.975 101.293C256.315 100.524 258.657 99.7602 261 99Z" fill="#E3E13F"/>
<path d="M240 140C238.046 146.249 235.26 151.938 232.307 157.769C231.686 159.005 231.076 160.246 230.475 161.492C224.438 174.01 224.438 174.01 218.106 176.339C217.411 176.557 216.716 176.775 216 177C214.459 177.645 212.921 178.297 211.387 178.957C209.822 179.58 208.255 180.198 206.688 180.812C205.89 181.137 205.093 181.461 204.271 181.795C203.505 182.096 202.739 182.397 201.949 182.707C200.918 183.117 200.918 183.117 199.866 183.534C198 184 198 184 195 183C207.732 150.419 207.732 150.419 218.59 144.738C225.415 142.033 232.618 140 240 140Z" fill="#E3E13F"/>
<path d="M221 179C220.739 179.492 220.478 179.984 220.209 180.49C219.422 181.975 218.636 183.46 217.852 184.945C216.944 186.661 216.032 188.374 215.117 190.086C212.908 194.246 210.781 198.396 208.906 202.719C204.327 213.144 204.327 213.144 200.703 215.48C198.25 216.188 198.25 216.188 195.727 216.566C192.407 217.094 189.698 218.275 186.625 219.625C183.431 221.016 180.412 222.272 177 223C177.966 216.525 181.147 210.846 183.99 205.025C184.661 203.637 185.321 202.244 185.967 200.844C192.033 187.725 192.033 187.725 197.477 185.273C198.974 184.814 200.482 184.388 202 184C203.431 183.437 204.856 182.858 206.273 182.262C207.64 181.734 209.007 181.209 210.375 180.688C211.072 180.411 211.77 180.134 212.488 179.85C217.65 177.883 217.65 177.883 221 179Z" fill="#E2E03F"/>
<path d="M228 113C229 116 229 116 227.737 119.094C227.107 120.353 226.466 121.607 225.816 122.855C225.315 123.848 225.315 123.848 224.803 124.86C223.732 126.974 222.648 129.081 221.562 131.188C220.834 132.619 220.107 134.05 219.381 135.482C217.598 138.994 215.802 142.498 214 146C214.939 145.629 214.939 145.629 215.896 145.25C218.719 144.138 221.547 143.037 224.375 141.938C225.36 141.548 226.345 141.158 227.359 140.756C228.3 140.392 229.241 140.028 230.211 139.652C231.08 139.312 231.95 138.972 232.845 138.621C235 138 235 138 237 139C237 139.66 237 140.32 237 141C233.21 142.338 229.418 143.67 225.625 145C224.545 145.382 223.465 145.763 222.352 146.156C220.805 146.698 220.805 146.698 219.227 147.25C218.273 147.585 217.32 147.92 216.338 148.266C214 149 214 149 212 149C211.737 149.852 211.474 150.703 211.204 151.581C209.955 155.127 208.435 158.355 206.742 161.711C206.434 162.324 206.126 162.937 205.809 163.569C204.835 165.506 203.855 167.44 202.875 169.375C202.209 170.696 201.544 172.018 200.879 173.34C199.257 176.562 197.63 179.782 196 183C200.313 181.586 204.618 180.165 208.871 178.578C210.048 178.14 211.225 177.702 212.438 177.25C213.632 176.801 214.827 176.353 216.059 175.891C219 175 219 175 221 176C221 176.66 221 177.32 221 178C219.812 178.376 219.812 178.376 218.601 178.759C215.636 179.717 212.685 180.709 209.739 181.723C207.847 182.363 205.942 182.965 204.037 183.566C197.767 185.752 193.701 187.223 190.637 193.352C190.044 194.884 189.48 196.429 189 198C188.01 198 187.02 198 186 198C186.33 197.051 186.66 196.103 187 195.125C188.102 192.229 188.102 192.229 188 190C188 189.01 188 188.02 188 187C188.619 186.959 189.238 186.918 189.875 186.875C190.576 186.586 191.277 186.298 192 186C192.704 184.013 193.363 182.01 194 180C195.052 177.674 196.141 175.365 197.258 173.07C197.566 172.435 197.874 171.8 198.191 171.145C199.165 169.137 200.145 167.131 201.125 165.125C201.791 163.755 202.456 162.386 203.121 161.016C204.744 157.675 206.371 154.337 208 151C207.024 151.373 206.048 151.745 205.043 152.129C203.758 152.607 202.473 153.085 201.188 153.562C200.224 153.933 200.224 153.933 199.24 154.311C194.34 156.113 194.34 156.113 191 155C194.857 152.405 198.275 151.434 202.766 150.359C209.283 148.09 211.777 145.472 214.797 139.328C216.198 136.334 217.482 133.302 218.75 130.25C219.767 127.935 220.797 125.627 221.83 123.32C222.464 121.891 223.085 120.457 223.693 119.016C225.788 114.106 225.788 114.106 228 113Z" fill="#070707"/>
<path d="M54 148C54.99 148.33 55.98 148.66 57 149C56.34 149 55.68 149 55 149C54.7654 149.776 54.5308 150.552 54.2891 151.352C52.5911 156.157 50.4905 160.741 48.375 165.375C47.9548 166.302 47.5345 167.229 47.1016 168.184C46.0704 170.457 45.0364 172.729 44 175C43.01 175 42.02 175 41 175C42.7213 169.359 45.0898 164.058 47.5 158.688C47.9035 157.769 48.307 156.851 48.7227 155.904C49.1132 155.032 49.5038 154.16 49.9062 153.262C50.2601 152.467 50.6139 151.673 50.9785 150.854C52 149 52 149 54 148Z" fill="#0A0A0A"/>
<path d="M70 113C71.2955 116.887 70.4098 117.894 68.6914 121.543C68.1919 122.616 67.6924 123.689 67.1777 124.795C66.6447 125.914 66.1117 127.034 65.5625 128.188C64.7688 129.884 64.7688 129.884 63.959 131.615C62.648 134.414 61.328 137.209 60 140C59.01 140 58.02 140 57 140C58.7434 134.154 60.9525 128.657 63.5 123.125C63.7966 122.471 64.0931 121.816 64.3987 121.142C65.8955 117.946 67.2472 115.266 70 113Z" fill="#0B0B0B"/>
<path d="M221 176C221 176.66 221 177.32 221 178C213.41 180.64 205.82 183.28 198 186C200.252 181.496 200.252 181.496 204.281 180.043C205.544 179.582 205.544 179.582 206.832 179.111C208.153 178.654 208.153 178.654 209.5 178.188C210.38 177.863 211.261 177.539 212.168 177.205C218.723 174.861 218.723 174.861 221 176Z" fill="#0D0D0C"/>
<path d="M205 160C206.225 163.675 205.688 164.265 204.016 167.633C203.575 168.521 203.134 169.409 202.68 170.324C202.208 171.248 201.736 172.173 201.25 173.125C200.794 174.057 200.337 174.989 199.867 175.949C199.421 176.835 198.975 177.72 198.516 178.633C198.106 179.446 197.696 180.26 197.274 181.098C196 183 196 183 193 184C194.553 178.677 196.944 174.041 199.562 169.188C200.18 168.024 200.18 168.024 200.811 166.838C203.852 161.148 203.852 161.148 205 160Z" fill="#020202"/>
<path d="M228 113C229 116 229 116 228.379 117.809C228.039 118.464 227.698 119.119 227.348 119.793C226.983 120.505 226.619 121.217 226.244 121.951C225.854 122.689 225.464 123.427 225.062 124.188C224.483 125.312 224.483 125.312 223.893 126.459C222.937 128.311 221.97 130.156 221 132C220.01 132 219.02 132 218 132C219.343 127.693 220.989 123.725 223 119.688C223.516 118.639 224.031 117.591 224.562 116.512C226 114 226 114 228 113Z" fill="#0E0F0F"/>
<path d="M127 100C127.99 100.33 128.98 100.66 130 101C129.571 101.357 129.141 101.714 128.699 102.082C126.386 104.693 125.229 107.508 123.812 110.688C123.283 111.867 122.753 113.046 122.207 114.262C121.809 115.165 121.41 116.069 121 117C120.01 117 119.02 117 118 117C119.627 111.38 122.037 106.042 125 101C125.66 100.67 126.32 100.34 127 100Z" fill="#0F1011"/>
<path d="M131 194C132 197 132 197 131.004 199.375C130.528 200.241 130.053 201.108 129.562 202C127.452 205.771 127.452 205.771 127 210C125.68 209.67 124.36 209.34 123 209C124.468 204.107 126.33 199.37 129 195C129.66 194.67 130.32 194.34 131 194Z" fill="#111213"/>
<path d="M237 139C237 139.66 237 140.32 237 141C232.05 142.65 227.1 144.3 222 146C224.284 141.433 224.909 141.252 229.5 139.688C230.97 139.167 230.97 139.167 232.469 138.637C235 138 235 138 237 139Z" fill="#11120F"/>
<path d="M220 73C220 73.66 220 74.32 220 75C214.72 76.32 209.44 77.64 204 79C204.33 78.01 204.66 77.02 205 76C207.871 74.7969 207.871 74.7969 211.438 73.75C212.612 73.3942 213.786 73.0384 214.996 72.6719C218 72 218 72 220 73Z" fill="#0E0E0D"/>
<path d="M150 155C151 158 151 158 150.004 160.48C149.528 161.374 149.053 162.267 148.562 163.188C148.089 164.089 147.616 164.99 147.129 165.918C146.756 166.605 146.384 167.292 146 168C145.01 168 144.02 168 143 168C144.31 163.769 145.839 159.873 148 156C148.66 155.67 149.32 155.34 150 155Z" fill="#0D0E0F"/>
<path d="M219 131C220 134 220 134 219.109 136.445C218.661 137.33 218.212 138.214 217.75 139.125C217.093 140.459 217.093 140.459 216.422 141.82C215 144 215 144 212 145C213.46 139.69 215.983 135.537 219 131Z" fill="#010101"/>
<path d="M156 90C156 90.66 156 91.32 156 92C151.05 93.485 151.05 93.485 146 95C146 94.01 146 93.02 146 92C149.62 90.6837 152.096 90 156 90Z" fill="#0B0C0E"/>
<path d="M95 165C95.33 165.66 95.66 166.32 96 167C95.2227 169.164 95.2227 169.164 94.0625 171.625C93.6822 172.442 93.302 173.26 92.9102 174.102C92.6098 174.728 92.3095 175.355 92 176C91.01 176 90.02 176 89 176C91.2331 168.982 91.2331 168.982 93 166C93.66 165.67 94.32 165.34 95 165Z" fill="#090909"/>
<path d="M209 152C210 155 210 155 208.562 158.188C207.789 159.58 207.789 159.58 207 161C206.01 161 205.02 161 204 161C205.091 157.225 205.908 154.53 209 152Z" fill="#0D0D0D"/>
<path d="M111 235C111.33 235.99 111.66 236.98 112 238C110.688 240.188 110.688 240.188 109 242C108.34 242 107.68 242 107 242C107.602 239.98 108.273 237.979 109 236C109.66 235.67 110.32 235.34 111 235Z" fill="#0C0C0C"/>
<path d="M131 194C131.33 194.99 131.66 195.98 132 197C130.688 199.188 130.688 199.188 129 201C128.34 201 127.68 201 127 201C127.602 198.98 128.273 196.979 129 195C129.66 194.67 130.32 194.34 131 194Z" fill="#0C0C0C"/>
<path d="M45 168C45.33 168.99 45.66 169.98 46 171C44.6875 173.188 44.6875 173.188 43 175C42.34 175 41.68 175 41 175C41.6018 172.98 42.2731 170.979 43 169C43.66 168.67 44.32 168.34 45 168Z" fill="#111110"/>
<path d="M199 152C199 152.66 199 153.32 199 154C194.375 156.125 194.375 156.125 191 155C195.625 152 195.625 152 199 152Z" fill="black"/>
<path d="M87 181C87.99 181.33 88.98 181.66 90 182C89.34 182 88.68 182 88 182C87.34 183.98 86.68 185.96 86 188C85.34 187.67 84.68 187.34 84 187C85.875 182.125 85.875 182.125 87 181Z" fill="#0C0C0C"/>
</g>
<defs>
<clipPath id="clip0_2010_671">
<rect width="271" height="258" fill="white"/>
</clipPath>
</defs>
</svg>
