<?xml version="1.0" encoding="UTF-8"?>
<svg width="1177" height="804" viewBox="0 0 1177 804" fill="none" xmlns="http://www.w3.org/2000/svg">
<path d="M0 0C82.5 0 165 0 250 0C250 43.89 250 87.78 250 133C234.16 133 218.32 133 202 133C202.06 179.251 202.134 225.502 202.229 271.754C202.24 277.234 202.251 282.714 202.262 288.194C202.266 289.83 202.266 289.83 202.269 291.5C202.304 309.083 202.329 326.666 202.35 344.25C202.372 362.338 202.405 380.426 202.449 398.515C202.475 409.645 202.493 420.776 202.499 431.906C202.505 439.574 202.521 447.243 202.546 454.911C202.559 459.312 202.569 463.714 202.565 468.115C202.553 485.729 202.937 503.217 204.355 520.78C204.414 521.527 204.474 522.274 204.535 523.044C207.504 559.597 214.063 600.536 243.164 625.832C268.181 644.957 301.78 647.98 332.188 644.188C334.463 643.822 336.735 643.428 339 643C340.102 642.794 341.204 642.588 342.34 642.375C350.23 640.724 357.587 638.149 365 635C365.752 634.682 366.503 634.363 367.277 634.035C374.849 630.542 381.354 625.08 387 619C387.581 618.435 388.163 617.871 388.762 617.289C411.153 594.326 415.758 556.589 418.75 526.25C418.924 524.508 418.924 524.508 419.101 522.73C421.335 497.31 421.158 471.65 421.201 446.15C421.209 441.926 421.222 437.703 421.235 433.479C421.257 426.201 421.275 418.923 421.291 411.645C421.314 401.122 421.342 390.6 421.371 380.078C421.419 362.997 421.462 345.915 421.503 328.834C421.542 312.264 421.584 295.694 421.628 279.124C421.632 277.586 421.632 277.586 421.636 276.017C421.65 270.872 421.663 265.727 421.677 260.582C421.791 218.055 421.897 175.527 422 133C405.83 133 389.66 133 373 133C373 89.11 373 45.22 373 0C455.5 0 538 0 623 0C623 43.89 623 87.78 623 133C606.5 133 590 133 573 133C573.004 137.836 573.009 142.671 573.013 147.653C573.053 192.128 573.083 236.604 573.102 281.079C573.105 286.924 573.107 292.768 573.11 298.613C573.111 300.358 573.111 300.358 573.111 302.138C573.12 320.907 573.136 339.676 573.154 358.445C573.173 377.743 573.184 397.042 573.188 416.34C573.191 428.221 573.199 440.103 573.216 451.984C573.226 460.163 573.23 468.341 573.227 476.52C573.226 481.218 573.227 485.917 573.238 490.616C573.277 508.296 573.139 525.919 572.08 543.572C572.039 544.257 571.998 544.941 571.955 545.646C571.179 558.245 569.898 570.773 568.335 583.297C568.053 585.571 567.79 587.844 567.539 590.121C561.215 643.634 542.617 698.403 505 738C504.5 738.532 504 739.065 503.485 739.613C487.271 756.787 468.269 768.897 447 779C445.461 779.752 445.461 779.752 443.891 780.52C421.619 790.779 397.118 796.274 373 800C371.857 800.178 370.713 800.356 369.535 800.539C350.876 803.257 332.131 803.304 313.312 803.375C312.121 803.383 310.929 803.391 309.701 803.399C235.289 803.78 165.551 782.023 112 729.25C56.3644 673.647 48.8454 594.6 48.7502 519.899C48.7489 515.302 48.7577 510.704 48.7679 506.106C48.7767 501.075 48.7736 496.044 48.7721 491.014C48.771 482.342 48.7772 473.67 48.7885 464.999C48.8049 452.462 48.81 439.925 48.8125 427.388C48.8169 407.037 48.8301 386.685 48.8491 366.334C48.8675 346.59 48.8817 326.847 48.8901 307.103C48.8909 305.271 48.8909 305.271 48.8917 303.401C48.8943 297.272 48.8969 291.143 48.8994 285.015C48.92 234.343 48.9557 183.672 49 133C32.83 133 16.66 133 0 133C0 89.11 0 45.22 0 0Z" fill="#005496"/>
<path d="M637 0C815.2 0 993.4 0 1177 0C1177 67.98 1177 135.96 1177 206C1132.78 206 1088.56 206 1043 206C1043 181.91 1043 157.82 1043 133C975.02 133 907.04 133 837 133C837 195.7 837 258.4 837 323C898.71 323 960.42 323 1024 323C1024 367.22 1024 411.44 1024 457C962.29 457 900.58 457 837 457C837.33 523.99 837.66 590.98 838 660C853.84 660.33 869.68 660.66 886 661C886 704.89 886 748.78 886 794C803.83 794 721.66 794 637 794C637 750.11 637 706.22 637 661C653.5 661 670 661 687 661C687 486.76 687 312.52 687 133C670.5 133 654 133 637 133C637 89.11 637 45.22 637 0Z" fill="#005496"/>
</svg>
